HIERARCHY
ROOT Hips
{
	OFFSET -0.001795 -0.223333 0.028219
	CHANNELS 6 Xposition Yposition Zposition Zrotation Yrotation Xrotation 
	JOINT LeftUpLeg
	{
		OFFSET 0.069520 -0.091406 -0.006815
		CHANNELS 3 Zrotation Yrotation Xrotation
		JOINT LeftLeg
		{
			OFFSET 0.034277 -0.375199 -0.004496
			CHANNELS 3 Zrotation Yrotation Xrotation
			JOINT LeftFoot
			{
				OFFSET -0.013596 -0.397961 -0.043693
				CHANNELS 3 Zrotation Yrotation Xrotation
				JOINT LeftToe
				{
					OFFSET 0.026358 -0.055791 0.119288
					CHANNELS 3 Zrotation Yrotation Xrotation
					End Site
					{
						OFFSET 0.000000 0.000000 0.000000
					}
				}
			}
		}
	}
	JOINT RightUpLeg
	{
		OFFSET -0.067670 -0.090522 -0.004320
		CHANNELS 3 Zrotation Yrotation Xrotation
		JOINT RightLeg
		{
			OFFSET -0.038290 -0.382569 -0.008850
			CHANNELS 3 Zrotation Yrotation Xrotation
			JOINT RightFoot
			{
				OFFSET 0.015774 -0.398415 -0.042312
				CHANNELS 3 Zrotation Yrotation Xrotation
				JOINT RightToe
				{
					OFFSET -0.025372 -0.048144 0.123348
					CHANNELS 3 Zrotation Yrotation Xrotation
					End Site
					{
						OFFSET 0.000000 0.000000 0.000000
					}
				}
			}
		}
	}
	JOINT Spine
	{
		OFFSET -0.002533 0.108963 -0.026696
		CHANNELS 3 Zrotation Yrotation Xrotation
		JOINT Spine1
		{
			OFFSET 0.005487 0.135180 0.001092
			CHANNELS 3 Zrotation Yrotation Xrotation
			JOINT Spine2
			{
				OFFSET 0.001457 0.052922 0.025425
				CHANNELS 3 Zrotation Yrotation Xrotation
				JOINT Neck
				{
					OFFSET -0.002778 0.213870 -0.042857
					CHANNELS 3 Zrotation Yrotation Xrotation
					JOINT Head
					{
						OFFSET 0.005152 0.064970 0.051349
						CHANNELS 3 Zrotation Yrotation Xrotation
						End Site
						{
							OFFSET 0.000000 0.000000 0.000000
						}
					}
				}
				JOINT LeftShoulder
				{
					OFFSET 0.078845 0.121749 -0.034090
					CHANNELS 3 Zrotation Yrotation Xrotation
					JOINT LeftArm
					{
						OFFSET 0.090977 0.030469 -0.008868
						CHANNELS 3 Zrotation Yrotation Xrotation
						JOINT LeftForeArm
						{
							OFFSET 0.259612 -0.012772 -0.027456
							CHANNELS 3 Zrotation Yrotation Xrotation
							JOINT LeftHand
							{
								OFFSET 0.249234 0.008986 -0.001171
								CHANNELS 3 Zrotation Yrotation Xrotation
								End Site
								{
									OFFSET 0.000000 0.000000 0.000000
								}
							}
						}
					}
				}
				JOINT RightShoulder
				{
					OFFSET -0.081759 0.118833 -0.038615
					CHANNELS 3 Zrotation Yrotation Xrotation
					JOINT RightArm
					{
						OFFSET -0.096012 0.032551 -0.009143
						CHANNELS 3 Zrotation Yrotation Xrotation
						JOINT RightForeArm
						{
							OFFSET -0.253742 -0.013329 -0.021401
							CHANNELS 3 Zrotation Yrotation Xrotation
							JOINT RightHand
							{
								OFFSET -0.255298 0.007772 -0.005559
								CHANNELS 3 Zrotation Yrotation Xrotation
								End Site
								{
									OFFSET 0.000000 0.000000 0.000000
								}
							}
						}
					}
				}
			}
		}
	}
}
MOTION
Frames: 7
Frame Time: 0.050000
-0.081338 0.933755 0.718913 -0.337668 2.007405 5.890358 4.109516 -0.382070 -4.679323 -4.907416 0.527598 3.017819 14.437854 25.885129 22.756572 0.000000 0.000000 0.000000 4.001344 1.245851 -10.300421 1.361851 -0.049193 3.737080 -2.677498 -8.119779 4.534552 0.000000 0.000000 0.000000 10.106642 -1.421414 8.419702 7.908747 -4.717003 7.894414 -8.290715 3.959888 3.973106 11.513682 -4.887870 -17.414234 0.000000 0.000000 0.000000 -24.675579 -28.853019 13.012983 -31.464659 -25.419786 2.969698 54.189766 -37.372650 -18.640028 0.000000 0.000000 0.000000 24.008154 7.498913 4.444515 54.695674 1.602910 -4.928678 -7.833987 43.482803 -0.590046 0.000000 0.000000 0.000000 
-0.082044 0.933322 0.718233 -0.468353 2.500877 5.895781 4.509682 -0.381302 -4.655324 -5.164537 0.550799 2.769566 14.172245 25.638223 22.300355 0.000000 0.000000 0.000000 4.176509 1.249037 -10.245379 1.428250 -0.066039 3.549360 -2.868201 -8.522130 4.541356 0.000000 0.000000 0.000000 9.736997 -1.334314 7.994895 8.345775 -5.023106 8.159479 -8.579402 3.520200 3.718830 11.569528 -4.988868 -17.120192 0.000000 0.000000 0.000000 -24.115702 -28.991390 13.058300 -30.782983 -26.252427 3.067107 50.848928 -35.158161 -16.179929 0.000000 0.000000 0.000000 24.067973 7.397651 4.333855 54.868773 1.470055 -4.968942 -8.343170 43.617465 -0.798131 0.000000 0.000000 0.000000 
-0.082753 0.933313 0.716905 -0.576038 3.133980 5.933398 4.958952 -0.386715 -4.714243 -5.522958 0.582156 2.476917 13.786953 25.247491 21.953849 0.000000 0.000000 0.000000 4.378850 1.239971 -10.086335 1.398176 -0.078225 3.025244 -3.073734 -9.007339 4.795033 0.000000 0.000000 0.000000 9.538889 -1.340311 8.129368 8.402671 -5.031104 7.760339 -8.481506 3.034440 3.693694 11.607971 -5.085417 -16.865913 0.000000 0.000000 0.000000 -23.559320 -29.406789 13.327299 -30.170551 -27.532674 3.241784 47.248342 -32.534524 -13.626259 0.000000 0.000000 0.000000 23.876835 7.219641 4.131667 54.511931 1.472194 -4.908557 -7.811673 43.435030 -0.626587 0.000000 0.000000 0.000000 
-0.083349 0.933277 0.715213 -0.593673 3.286092 5.938449 5.060864 -0.398127 -4.939711 -5.573080 0.587684 2.623974 13.713193 25.178318 21.873806 0.000000 0.000000 0.000000 4.416204 1.268109 -10.277653 1.431066 -0.080583 3.152089 -3.137882 -9.157439 4.867393 0.000000 0.000000 0.000000 9.179613 -1.294296 8.057571 8.312569 -4.940741 7.423212 -8.413546 2.581258 3.828122 11.649016 -5.197423 -16.665273 0.000000 0.000000 0.000000 -22.392425 -29.255086 13.193264 -30.760434 -28.258238 3.431135 44.236583 -31.523211 -12.151164 0.000000 0.000000 0.000000 23.793487 7.135166 3.947308 54.233508 1.262943 -4.963900 -7.038319 43.572964 -0.379467 0.000000 0.000000 0.000000 
-0.083816 0.932712 0.713466 -0.628164 3.225541 5.763802 5.304414 -0.392036 -4.908965 -5.908213 0.631102 2.719497 13.782062 25.267872 21.691981 0.000000 0.000000 0.000000 4.491454 1.233840 -9.978424 1.420715 -0.088705 2.743251 -3.106164 -9.072620 4.790473 0.000000 0.000000 0.000000 9.056846 -1.294277 8.215039 7.962151 -4.733991 7.344886 -8.277649 2.325359 3.958795 11.418710 -5.147244 -16.406151 0.000000 0.000000 0.000000 -21.955358 -29.018622 13.081712 -31.925227 -28.242467 3.571818 42.814305 -31.949167 -11.829079 0.000000 0.000000 0.000000 23.560961 6.933654 3.714908 54.239030 1.346840 -4.916022 -6.332346 43.799755 -0.135263 0.000000 0.000000 0.000000 
-0.083945 0.932463 0.711850 -0.689433 2.993413 5.674328 5.120004 -0.394611 -5.004333 -5.515103 0.589538 2.937461 13.982310 25.497624 21.657484 0.000000 0.000000 0.000000 4.464435 1.223216 -9.906371 1.585171 -0.113354 2.580924 -3.000238 -8.850248 4.800520 0.000000 0.000000 0.000000 9.206412 -1.330171 8.412791 7.486367 -4.406940 6.959349 -8.382791 2.151326 4.061210 11.482034 -5.242284 -16.273511 0.000000 0.000000 0.000000 -21.702105 -28.657244 12.903225 -34.043492 -26.773286 3.482280 41.657505 -33.791655 -12.135108 0.000000 0.000000 0.000000 23.421984 6.789574 3.546569 53.859315 0.940375 -5.057239 -5.560514 44.291264 0.138989 0.000000 0.000000 0.000000 
-0.083684 0.931632 0.710262 -0.555344 2.810754 5.500067 4.961229 -0.397515 -5.109248 -5.579984 0.606157 3.347360 14.158038 25.713255 21.467107 0.000000 0.000000 0.000000 4.254391 1.187192 -9.710946 1.668184 -0.127667 2.397502 -2.961617 -8.706118 4.512787 0.000000 0.000000 0.000000 9.169762 -1.322503 8.451090 7.098877 -4.206025 7.108979 -8.591888 2.219309 4.125666 11.556714 -5.354496 -15.973644 0.000000 0.000000 0.000000 -22.064748 -28.199170 12.658966 -36.331287 -24.641926 3.206729 41.284485 -36.660119 -13.121199 0.000000 0.000000 0.000000 23.212582 6.377759 3.307484 53.902823 0.973279 -5.057457 -5.416481 44.675958 0.226075 0.000000 0.000000 0.000000 
